<svg id="Layer_1" data-name="Layer 1" xmlns="http://www.w3.org/2000/svg" viewBox="0 0 200 200"><path d="M100,54.3c-29.3,0-52,17.4-80,45.7,24.1,24.2,44.3,45.7,80,45.7s61.9-27.3,80-45.2C161.5,79.5,135.3,54.3,100,54.3Zm0,78.3c-17.7,0-32-14.7-32-32.6s14.3-32.6,32-32.6S132,82,132,100,117.7,132.6,100,132.6Z"/><path d="M100,125.8l-4.2-14a8.7,8.7,0,0,0-.7-1.7L94,108.6a5.3,5.3,0,0,0-1.2-1.4,8.6,8.6,0,0,0-1.4-1.3l-1.6-1-1.6-.8-14-4.1,14-4.2,1.7-.7,1.5-1a8.6,8.6,0,0,0,1.4-1.3,8.6,8.6,0,0,0,1.3-1.4l1-1.5a8.9,8.9,0,0,0,.8-1.7l4.1-14,4.2,14.1a7.7,7.7,0,0,0,.7,1.6l1.1,1.6a5.3,5.3,0,0,0,1.2,1.4l1.4,1.2,1.6,1,1.6.8,14,4.1-14,4.2-1.7.8-1.5,1-1.4,1.2-1.3,1.4-1,1.6a8.9,8.9,0,0,0-.8,1.7Z"/><path d="M135.7,64.4c-10.8-6.9-27.4-10.1-35.7-10s-24.9,3.1-35.7,10c-1,0-2,6,0,6,10.7,1.8,24.8-4.5,31.3-5h8.8c6.5.4,20.6,6.8,31.3,5C137.7,70.4,136.7,64.4,135.7,64.4Z"/><path d="M135.7,135.6c-10.8,6.9-27.4,10.1-35.7,10s-24.9-3.1-35.7-10c-1,0-2-6,0-6,10.7-1.8,24.8,4.5,31.3,5h8.8c6.5-.4,20.6-6.8,31.3-5C137.7,129.6,136.7,135.6,135.7,135.6Z"/></svg>