<svg id="Layer_1" data-name="Layer 1" xmlns="http://www.w3.org/2000/svg" viewBox="0 0 200 200"><defs><style>.cls-1{fill:#f5f0ec;}.cls-2{fill:#1b5b31;}</style></defs><circle class="cls-1" cx="100" cy="100" r="100"/><path class="cls-2" d="M62.7,83.5c0-13.1,3.1-23.6,9.3-31.4S86.4,40.3,96.6,40.3s17.2,3.4,22.7,10.1l.9-8.5h17.1v81.9c0,11.1-3.5,19.9-10.4,26.3s-16.2,9.6-27.9,9.6a44.8,44.8,0,0,1-18.2-3.9c-5.9-2.6-10.4-5.9-13.5-10.1l9-11.4c5.9,6.9,13,10.4,21.6,10.4,6.3,0,11.3-1.7,14.9-5.1s5.5-8.5,5.5-15.1v-5.7c-5.5,6.1-12.8,9.2-21.9,9.2s-18-4-24.3-11.8S62.7,97.4,62.7,83.5Zm18.9,1.7c0,8.4,1.8,15.1,5.2,20a16.7,16.7,0,0,0,14.4,7.3c7.7,0,13.4-3.3,17.1-9.8V65.5c-3.6-6.4-9.2-9.6-16.9-9.6s-11.1,2.4-14.6,7.4S81.6,75.5,81.6,85.2Z"/></svg>