<svg id="Layer_1" data-name="Layer 1" xmlns="http://www.w3.org/2000/svg" viewBox="0 0 200 200"><defs><style>.cls-1{fill-rule:evenodd;}</style></defs><path class="cls-1" d="M53,22.9a9.8,9.8,0,0,1,14,0L83.2,39,39.9,82.2,23.8,66.1a9.8,9.8,0,0,1,0-14L53,22.9ZM87.7,88h0a6.4,6.4,0,0,1,4.4-1.8A6,6,0,0,1,96.4,88h.1l39.1,39.1h0a6.4,6.4,0,0,1,1.5,6.4l-.6,1.3h0l-.9,1.1h0a6.1,6.1,0,0,1-6.4,1.4l-1.2-.6h0l-1.1-.8h0L87.7,96.7h0a6.2,6.2,0,0,1,0-8.7Zm32.2,74.1h-.1L48.1,90.4,91.3,47.2,163,118.9h0l11.8,41.6c7.5,26.5,7.6,20.8-19.9,12.3l-35-10.8Zm35.7-35.8,7.7,27.4c4.9,17.4,5,13.7-13,8.1l-23.1-7.1,28.4-28.4Z"/><path d="M151.1,76.8l-4.6-15.7a10,10,0,0,0-.9-1.8,17.4,17.4,0,0,0-1.1-1.8,10,10,0,0,0-1.4-1.5,10.7,10.7,0,0,0-1.6-1.4l-1.7-1.2-1.9-.8-15.6-4.7,15.6-4.6,1.9-.8,1.7-1.2a10.7,10.7,0,0,0,1.6-1.4l1.4-1.5a17.4,17.4,0,0,0,1.1-1.8,8.2,8.2,0,0,0,.9-1.9l4.6-15.6,4.7,15.7.8,1.8a18.8,18.8,0,0,0,1.2,1.8l1.3,1.5,1.6,1.4,1.8,1.2,1.9.8L180,47.9l-15.7,4.7-1.8.8-1.8,1.2L159.1,56a9.3,9.3,0,0,0-1.3,1.5,18.8,18.8,0,0,0-1.2,1.8,10.8,10.8,0,0,0-.8,1.9Z"/></svg>