<svg id="Layer_1" data-name="Layer 1" xmlns="http://www.w3.org/2000/svg" viewBox="0 0 200 200"><path d="M96.4,151.7l-6.8-23.2c-.4-.9-.8-1.9-1.3-2.8s-1.1-1.7-1.7-2.6a22,22,0,0,0-2-2.3l-2.4-2.1L79.6,117l-2.8-1.3-23.2-6.8L76.9,102l2.7-1.3a22.6,22.6,0,0,0,2.6-1.6L84.6,97a22,22,0,0,0,2-2.3c.6-.9,1.2-1.8,1.7-2.7a23.9,23.9,0,0,0,1.3-2.8L96.4,66l6.9,23.3c.4.9.8,1.8,1.3,2.7s1.1,1.8,1.7,2.7a22,22,0,0,0,2,2.3l2.4,2a14.5,14.5,0,0,0,2.6,1.7,17.5,17.5,0,0,0,2.8,1.3l23.2,6.9L116,115.8l-2.7,1.2-2.6,1.7a24.1,24.1,0,0,0-2.4,2.1,22,22,0,0,0-2,2.3c-.6.9-1.2,1.7-1.7,2.6s-.9,1.9-1.3,2.8Z"/><path d="M148.7,78.7l-4.9-16.6c-.2-.5-.4-1.1-.7-1.7L142,58.8l-1.3-1.5-1.4-1.2L137.7,55l-1.8-.8-16.5-4.9L136,44.4a7.7,7.7,0,0,0,1.7-.7l1.6-1.1a8.6,8.6,0,0,0,1.4-1.3,8.6,8.6,0,0,0,1.3-1.4l1.1-1.6.8-1.8L148.7,20l5,16.6a7.7,7.7,0,0,0,.7,1.7l1.1,1.6,1.2,1.4,1.5,1.3,1.6,1.1,1.8.8,16.5,4.8-16.6,5a7.7,7.7,0,0,0-1.7.7l-1.6,1.1-1.5,1.2-1.2,1.5-1.1,1.6c-.3.6-.5,1.2-.8,1.7Z"/><path d="M45.3,80.4,41.4,67.2a8.3,8.3,0,0,0-.7-1.3,5.7,5.7,0,0,0-.8-1.3,5.8,5.8,0,0,0-1-1.2l-1.2-1a5.7,5.7,0,0,0-1.3-.8,6.1,6.1,0,0,0-1.4-.7L21.9,57l13.2-3.9a3.8,3.8,0,0,0,1.3-.6,5.7,5.7,0,0,0,1.3-.8l1.2-1,1-1.2a5.7,5.7,0,0,0,.8-1.3,6.1,6.1,0,0,0,.7-1.4l3.9-13.1,3.9,13.2a3.8,3.8,0,0,0,.6,1.3,5.7,5.7,0,0,0,.8,1.3l1,1.2,1.2,1a5.7,5.7,0,0,0,1.3.8l1.4.7L68.6,57,55.4,60.9l-1.3.7a5.7,5.7,0,0,0-1.3.8l-1.2,1a12.7,12.7,0,0,0-1,1.2,5.7,5.7,0,0,0-.8,1.3,5.2,5.2,0,0,0-.6,1.3Z"/><path d="M151.8,176l-3-10.3c-.2-.3-.3-.7-.5-1a3.6,3.6,0,0,0-.7-1,10.3,10.3,0,0,0-1.7-1.7l-1-.7-1.1-.5-10.2-3,10.3-3.1,1-.5,1-.6a3.6,3.6,0,0,0,.9-.8l.8-.9a6.1,6.1,0,0,0,.7-1l.5-1.1,3-10.3,3.1,10.3a5.4,5.4,0,0,0,.5,1.1,5.3,5.3,0,0,0,.6,1l.8.9.9.8,1,.6,1.1.5,10.3,3.1-10.3,3-1.1.5-1,.7-.9.8a3.6,3.6,0,0,0-.8.9l-.6,1a4.7,4.7,0,0,0-.5,1Z"/><path d="M48.1,180,45,169.7a7.6,7.6,0,0,0-.4-1.1l-.7-1-.8-.9-.9-.8-1-.6-1.1-.5-10.3-3.1,10.4-3,1-.5,1-.7.9-.7a3.9,3.9,0,0,0,.8-1,8.6,8.6,0,0,0,.7-1l.5-1.1,3-10.2,3,10.3.5,1a3.6,3.6,0,0,0,.7,1,3.9,3.9,0,0,0,.8,1l.9.7,1,.7,1.1.5,10.3,3L56,164.8l-1,.5-1,.6-.9.8-.8.9a6.1,6.1,0,0,0-.7,1l-.5,1.1Z"/><path d="M164.3,106.6l-1.2-4.3c-.1-.1-.1-.3-.2-.4l-.3-.4-.3-.4-.4-.3-.4-.3-.5-.2L156.8,99l4.3-1.2.4-.2.4-.3.4-.3.3-.4.3-.4a1.7,1.7,0,0,1,.2-.5l1.2-4.2,1.3,4.3a.8.8,0,0,0,.2.4l.3.4.3.4.4.3.4.3.4.2,4.3,1.2-4.3,1.3-.4.2-.4.3-.4.3-.3.4-.3.4a.8.8,0,0,0-.2.4Z"/><path d="M37.4,133l-1.3-4.2c0-.2-.1-.3-.2-.5l-.3-.4-.3-.4-.4-.3-.4-.3-.4-.2-4.3-1.2,4.3-1.3.4-.2.4-.2a.8.8,0,0,0,.4-.4l.3-.3.3-.5.2-.4,1.3-4.2,1.2,4.2c.1.1.1.3.2.4l.3.5.3.3.4.4.4.2.5.2,4.2,1.3-4.3,1.2-.4.2-.4.3-.4.3-.3.4-.3.4-.2.5Z"/><path d="M92.5,48.2l-1.3-4.3c0-.1-.1-.2-.2-.4l-.3-.4-.3-.4-.4-.3-.4-.3-.4-.2-4.3-1.2,4.3-1.3.4-.2.4-.3.4-.3.3-.4.3-.4a.8.8,0,0,0,.2-.4l1.3-4.3,1.2,4.3c.1.1.1.3.2.4l.3.4.3.4.4.3.4.3.5.2,4.2,1.3-4.3,1.2-.4.2-.4.3-.4.3-.3.4-.3.4a.5.5,0,0,1-.2.4Z"/><path d="M106.3,176.8l-1.3-4.3-.2-.4-.3-.4-.3-.4-.4-.3-.4-.3-.4-.2-4.3-1.2L103,168l.4-.2.4-.3.4-.3.3-.4.3-.4a.8.8,0,0,0,.2-.4l1.3-4.3,1.2,4.3.2.4.3.4.3.4.4.3.4.3.5.2,4.2,1.3-4.3,1.2-.4.2-.4.3-.4.3-.3.4-.3.4a.5.5,0,0,1-.2.4Z"/></svg>